<svg viewBox="0 0 32 32" xml:space="preserve" xmlns="http://www.w3.org/2000/svg"><g fill="#ffffff" class="fill-263238"><path d="M17.5 31h-3a.5.5 0 0 1-.493-.418l-.475-2.848a11.89 11.89 0 0 1-2.431-.792l-2.06 2.027a.5.5 0 0 1-.645.048L5.97 27.254a.5.5 0 0 1-.153-.628l1.29-2.583a12.03 12.03 0 0 1-1.513-2.068l-2.846.428a.492.492 0 0 1-.55-.34l-.928-2.854a.5.5 0 0 1 .245-.598l2.563-1.333C4.025 16.811 4 16.397 4 16s.025-.81.079-1.278L1.516 13.39a.5.5 0 0 1-.245-.598l.927-2.854a.494.494 0 0 1 .55-.34l2.848.427c.158-.274.329-.544.509-.804a.5.5 0 0 1 .821.569 10.59 10.59 0 0 0-.623 1.019.496.496 0 0 1-.515.257l-2.77-.416-.665 2.048 2.496 1.297a.5.5 0 0 1 .265.511C5.036 15.078 5 15.553 5 16s.036.922.113 1.494a.5.5 0 0 1-.265.511l-2.496 1.298.666 2.048 2.77-.416a.497.497 0 0 1 .515.258c.468.87 1.062 1.684 1.767 2.417a.5.5 0 0 1 .087.57L6.9 26.694l1.742 1.266 2.005-1.974a.505.505 0 0 1 .569-.094c.904.439 1.859.75 2.84.925a.5.5 0 0 1 .405.41L14.924 30h2.152l.462-2.772a.5.5 0 0 1 .405-.41 10.895 10.895 0 0 0 2.842-.925.5.5 0 0 1 .568.094l2.005 1.973 1.741-1.266-1.255-2.514a.499.499 0 0 1 .087-.57 11.042 11.042 0 0 0 1.766-2.417c.1-.186.299-.29.515-.258l2.771.415.665-2.048-2.496-1.297a.5.5 0 0 1-.265-.511c.077-.572.113-1.047.113-1.494s-.036-.922-.113-1.494a.5.5 0 0 1 .265-.511l2.496-1.298-.666-2.048-2.77.416a.502.502 0 0 1-.515-.258A11.029 11.029 0 0 0 23.93 8.39a.5.5 0 0 1-.087-.57L25.1 5.306 23.357 4.04l-2.005 1.974a.5.5 0 0 1-.569.094 10.87 10.87 0 0 0-2.84-.925.5.5 0 0 1-.405-.41L17.076 2h-2.152l-.462 2.772a.5.5 0 0 1-.405.41c-.979.175-1.936.485-2.842.925a.5.5 0 0 1-.568-.094L8.642 4.041 6.9 5.307 8.155 7.82a.5.5 0 0 1-.894.448L5.816 5.375a.5.5 0 0 1 .154-.628l2.427-1.764a.5.5 0 0 1 .645.048l2.06 2.026a11.9 11.9 0 0 1 2.432-.792l.475-2.848A.497.497 0 0 1 14.5 1h3a.5.5 0 0 1 .493.418l.475 2.848c.833.175 1.648.44 2.431.792l2.06-2.027a.5.5 0 0 1 .645-.048l2.428 1.764a.5.5 0 0 1 .153.628l-1.29 2.583a12.03 12.03 0 0 1 1.513 2.068l2.846-.428a.494.494 0 0 1 .55.34l.928 2.854a.5.5 0 0 1-.245.598l-2.563 1.333c.051.466.076.88.076 1.277s-.025.81-.079 1.278l2.563 1.332a.5.5 0 0 1 .245.598l-.927 2.854a.49.49 0 0 1-.55.34l-2.847-.427a12.093 12.093 0 0 1-1.512 2.068l1.289 2.582a.501.501 0 0 1-.153.628l-2.427 1.764a.5.5 0 0 1-.645-.048l-2.06-2.026a11.9 11.9 0 0 1-2.432.792l-.475 2.848a.495.495 0 0 1-.49.417zM16 20c-2.206 0-4-1.794-4-4s1.794-4 4-4 4 1.794 4 4-1.794 4-4 4zm0-7c-1.654 0-3 1.346-3 3s1.346 3 3 3 3-1.346 3-3-1.346-3-3-3z"></path><path d="M16 24c-4.411 0-8-3.589-8-8s3.589-8 8-8 8 3.589 8 8a7.936 7.936 0 0 1-1.657 4.878.501.501 0 0 1-.793-.609A6.945 6.945 0 0 0 23 16c0-3.859-3.141-7-7-7s-7 3.141-7 7 3.141 7 7 7c.828 0 1.642-.145 2.42-.43a.5.5 0 0 1 .344.94A8.022 8.022 0 0 1 16 24z"></path><circle cx="20.5" cy="22" r=".5"></circle></g></svg>