<svg width="180" height="44" viewBox="0 0 180 44" fill="none" xmlns="http://www.w3.org/2000/svg">
<g clip-path="url(#clip0_2998_7354)">
<path d="M60.2543 0.82373C58.7696 1.30982 57.2638 1.77477 55.7367 2.19745C40.4239 6.27635 24.9414 5.49439 10.9647 0.82373L8.25 18.1115L13.7431 19.5909L18.812 10.3341C20.1694 10.6089 21.5268 10.8413 22.9054 11.0527L24.4748 21.4718L30.1376 21.9579L33.5098 11.9615C34.8884 12.0037 36.2882 12.0037 37.6668 11.9615L41.039 21.9579L46.7018 21.4718L48.2712 11.0315C49.6286 10.8202 50.986 10.5877 52.3645 10.313L57.4335 19.5909L62.9266 18.1326L60.2543 0.82373Z" fill="white"/>
<path d="M49.2256 22.0003L44.1567 31.2782C42.7994 31.0035 41.442 30.771 40.0634 30.5597L38.4939 20.1194L32.81 19.6333L29.4377 29.6298C28.038 29.5875 26.6594 29.5875 25.2808 29.6298L21.9086 19.6333L16.2458 20.1194L14.6763 30.5385C13.2978 30.7499 11.9404 30.9824 10.583 31.2571L5.5141 22.0003L0.0209961 23.4797L2.73574 40.7464C16.7124 36.0757 32.1949 35.2937 47.5077 39.3938C49.0348 39.7953 50.5406 40.2603 52.0252 40.7675L54.74 23.4797L49.2256 22.0003Z" fill="white"/>
<path d="M91.7921 11.6025C91.7921 11.6025 89.3319 8.39014 84.1145 8.39014C78.8759 8.39014 72.0254 11.3701 72.0254 20.7959C72.0254 30.2218 78.8759 33.2862 84.1145 33.2862C89.3531 33.2862 91.0286 30.6022 91.7921 29.2919C91.7921 35.0192 86.5111 37.809 79.8515 34.512L76.861 40.958C85.4506 45.2905 98.1336 44.2972 98.1336 29.3341V8.98189H92.6829L91.7921 11.6025ZM85.4506 26.5444C83.3297 26.5444 80.1272 25.0862 80.1272 20.7959C80.1272 16.5057 83.3297 15.0474 85.4506 15.0474C87.5715 15.0474 90.7741 16.5057 90.7741 20.7959C90.7741 25.0862 87.5715 26.5444 85.4506 26.5444Z" fill="white"/>
<path d="M168.674 12.8491L167.359 8.98151H161.909V32.6941H169.48V20.7533C169.48 16.611 173.086 14.6666 176.882 16.1249L180.021 9.38306C172.025 5.85364 168.674 12.8491 168.674 12.8491Z" fill="white"/>
<path d="M156.31 8.98189H150.859L149.947 11.6025C149.947 11.6025 147.487 8.39014 142.269 8.39014C137.031 8.39014 130.18 11.8773 130.18 20.7959C130.18 29.63 137.031 33.2862 142.269 33.2862C148.399 33.2862 149.947 29.2919 149.947 29.2919V32.7156H156.31V29.3341V8.98189ZM143.605 26.5444C141.485 26.5444 138.282 25.0862 138.282 20.7959C138.282 16.5057 141.485 15.0474 143.605 15.0474C145.726 15.0474 148.929 16.5057 148.929 20.7959C148.929 25.0862 145.726 26.5444 143.605 26.5444Z" fill="white"/>
<path d="M115.249 7.86182C105.938 7.86182 101.124 14.4346 101.124 20.5846C101.124 26.7347 105.451 34.0471 114.57 34.0471C123.69 34.0471 126.787 28.1084 127.275 27.1573L122.269 23.9027C121.294 25.4666 118.897 27.3053 115.822 27.3053C113.319 27.3053 110.498 25.6779 109.544 22.846H127.466C127.975 16.1042 124.56 7.86182 115.249 7.86182ZM109.905 17.7104C110.838 15.7871 112.64 14.5191 115.037 14.5191C118.537 14.5191 119.682 17.7104 119.682 17.7104H109.905Z" fill="white"/>
</g>
<defs>
<clipPath id="clip0_2998_7354">
<rect width="180" height="42.3529" fill="white" transform="translate(0 0.82373)"/>
</clipPath>
</defs>
</svg>
